<svg width="128" height="95" viewBox="0 0 128 95" fill="none" xmlns="http://www.w3.org/2000/svg">
<path d="M54.3467 91.5569C50.4767 91.1469 46.6467 90.2669 42.9867 88.9369L42.4267 84.3568C42.2667 83.0668 41.8667 81.8468 41.2167 80.7268L38.3267 75.7268C38.1767 75.4668 37.8767 75.3469 37.5867 75.4269C37.2967 75.5069 37.1067 75.7769 37.1167 76.0669L37.2867 81.2268C37.3567 83.2368 38.0367 85.1369 39.2567 86.7369L40.0367 87.7568C36.9667 86.4168 34.0367 84.7569 31.3067 82.8169L32.0967 78.0768C32.3067 76.7968 32.2667 75.5168 31.9567 74.2568L30.6667 68.9269C30.5967 68.6369 30.3367 68.4368 30.0467 68.4368C29.7467 68.4368 29.4867 68.6368 29.4167 68.9168L28.1967 73.6269C27.6967 75.5669 27.8067 77.5868 28.5267 79.4668L29.2067 81.2469C28.9367 81.0269 28.6567 80.8168 28.3867 80.5868C26.2367 78.7968 24.2367 76.8169 22.4267 74.6769L23.2467 70.9368C23.5867 69.3668 23.6067 67.7769 23.3067 66.2069L22.4167 61.5468C22.3567 61.2568 22.1067 61.0368 21.8167 61.0268C21.5167 61.0068 21.2467 61.1968 21.1667 61.4768L20.0167 65.1368C19.3867 67.1368 19.3067 69.2368 19.7667 71.2568C19.4567 70.8168 19.1467 70.3668 18.8467 69.9168C17.6167 68.0468 16.5367 66.0968 15.5767 64.0768L17.0167 60.8568C17.6667 59.3968 18.0167 57.8368 18.0467 56.2369L18.1267 51.7768C18.1367 51.4768 17.9367 51.2168 17.6467 51.1368C17.3567 51.0568 17.0567 51.1868 16.9167 51.4468L15.1967 54.5368C14.3267 56.0968 13.8367 57.7968 13.7267 59.5468C13.4167 58.6668 13.1167 57.7768 12.8567 56.8868C12.4467 55.4768 12.0967 54.0368 11.8167 52.5968L14.4467 49.5868C15.3467 48.5568 16.0167 47.3668 16.4467 46.0668L17.8467 41.7568C17.9367 41.4768 17.8267 41.1668 17.5767 41.0068C17.3267 40.8468 16.9967 40.8868 16.7867 41.0868L14.0567 43.7168C12.6367 45.0768 11.6667 46.7968 11.2267 48.6968C10.9967 46.6868 10.8767 44.6568 10.8967 42.6268C10.8967 42.2168 10.9167 41.7968 10.9267 41.3868L13.9967 38.8868C15.0567 38.0268 15.9267 36.9668 16.5667 35.7568L18.5467 31.9968C18.6867 31.7368 18.6267 31.4068 18.4067 31.2168C18.1867 31.0168 17.8567 30.9968 17.6167 31.1668L14.7167 33.1268C13.2167 34.1468 12.0367 35.5168 11.2667 37.1368C11.5967 34.4968 12.1367 31.8868 12.8867 29.3368C12.8967 29.3368 12.9167 29.3368 12.9267 29.3268L16.7567 28.0068C17.8367 27.6368 18.8167 27.0569 19.6567 26.2969L22.8567 23.4068C23.0767 23.2068 23.1367 22.8868 22.9967 22.6268C22.8567 22.3668 22.5567 22.2268 22.2667 22.3068L18.6367 23.2069C16.9167 23.6269 15.4067 24.5668 14.2567 25.9168L13.8367 26.4068C14.6367 24.2168 15.5867 22.0868 16.6867 20.0268C16.7667 20.0368 16.8467 20.0369 16.9167 20.0169L20.6067 19.1668C21.7167 18.9068 22.7467 18.4369 23.6667 17.7669L26.9267 15.3968C27.1667 15.2268 27.2567 14.9068 27.1467 14.6268C27.0367 14.3468 26.7467 14.1868 26.4567 14.2268L23.0467 14.7069C21.3767 14.9369 19.8467 15.6568 18.5867 16.7868C19.7967 14.8868 21.1467 13.0668 22.6067 11.3368C22.6667 11.3668 22.7167 11.3868 22.7767 11.3868C22.8467 11.3968 22.9167 11.3968 22.9867 11.3868L26.3967 10.7669C27.3767 10.5869 28.2867 10.2169 29.1167 9.67686L32.1967 7.64683C32.4467 7.48683 32.5467 7.17683 32.4467 6.89683C32.3467 6.61683 32.0767 6.43683 31.7767 6.46683L28.5967 6.76685C27.8467 6.83685 27.1267 7.01683 26.4467 7.30683C27.3667 6.44683 28.3067 5.61685 29.2967 4.82685C29.3567 4.85685 29.4267 4.88683 29.4967 4.89683C29.5667 4.90683 29.6467 4.90685 29.7267 4.88685L32.6867 4.27683C33.6067 4.08683 34.4567 3.71683 35.2267 3.18683L37.8667 1.35685C38.1067 1.18685 38.2067 0.876838 38.1067 0.596838C38.0067 0.316838 37.7267 0.146834 37.4267 0.186834L34.6967 0.506841C33.2567 0.676841 31.9267 1.27684 30.8567 2.25684L29.1667 3.78684C29.0367 3.90684 28.9667 4.05683 28.9567 4.21683C27.3467 5.44683 25.8267 6.78683 24.3767 8.21683C24.9567 6.88683 25.1067 5.43683 24.8067 4.02683L24.1167 0.756841C24.0567 0.466841 23.8067 0.256831 23.5067 0.246831C23.2067 0.236831 22.9467 0.426833 22.8567 0.716833L21.7967 4.34684C21.5367 5.24684 21.4567 6.16684 21.5667 7.09684L21.9867 10.6268C21.9867 10.6568 21.9967 10.6768 22.0067 10.6968C20.5067 12.3868 19.1267 14.1768 17.8567 16.0568C18.0767 14.6868 17.8867 13.2968 17.2967 12.0268L15.6267 8.46683C15.4967 8.19683 15.2067 8.04685 14.9167 8.10685C14.6267 8.16685 14.4067 8.40685 14.3967 8.70685L14.1667 13.0368C14.1167 13.9668 14.2567 14.8869 14.5767 15.7669L15.8567 19.2768C14.7367 21.2568 13.7467 23.3069 12.8967 25.4269C12.7867 23.6669 12.1367 22.0168 11.0267 20.6468L8.66667 17.7468C8.47667 17.5168 8.1567 17.4468 7.8867 17.5668C7.6167 17.6968 7.46665 17.9868 7.52665 18.2768L8.34666 22.5068C8.56666 23.6268 8.9967 24.6768 9.6367 25.6168L11.7167 28.6868C10.6767 31.9068 9.96666 35.2268 9.59666 38.5968L9.44669 38.2668C8.55669 36.3368 7.11665 34.7568 5.27665 33.6968L2.24668 31.9668C1.98668 31.8168 1.6667 31.8668 1.4567 32.0768C1.2467 32.2868 1.21669 32.6168 1.37669 32.8668L3.6367 36.4668C4.3667 37.6268 5.30667 38.6168 6.42667 39.3968L9.37669 41.4468C9.35669 41.8468 9.32669 42.2368 9.31669 42.6368C9.24669 45.0068 9.34668 47.3868 9.61668 49.7468L9.35667 49.3668C8.13667 47.6268 6.43668 46.3268 4.43668 45.6168L0.856668 44.3568C0.576668 44.2568 0.266668 44.3668 0.106668 44.6068C-0.0533323 44.8568 -0.0333348 45.1768 0.166665 45.3968L3.21665 48.7468C4.13665 49.7568 5.23667 50.5668 6.48667 51.1268L10.0567 52.7568C10.3267 54.3268 10.6667 55.8869 11.0867 57.4269C11.3867 58.5369 11.7267 59.6268 12.0967 60.7168C10.7267 59.4868 9.09667 58.5968 7.29667 58.1068L3.87669 57.1769C3.58669 57.0969 3.28671 57.2269 3.14671 57.4869C2.99671 57.7468 3.0467 58.0668 3.2667 58.2768L6.50669 61.3368C7.67669 62.4368 9.02665 63.2768 10.5267 63.8268L13.8067 65.0368C14.6967 67.0068 15.7067 68.9269 16.8467 70.7669C15.7267 70.1969 14.5167 69.7969 13.2467 69.6068C13.2267 69.6068 13.2067 69.5968 13.1867 69.5968L9.3867 69.0368C9.0967 68.9968 8.80669 69.1569 8.69669 69.4269C8.58669 69.6969 8.66666 70.0168 8.90666 70.1968L12.7167 73.0168C14.0067 73.9668 15.4467 74.6468 17.0067 75.0168L20.4067 75.8268C22.1067 77.9468 23.9867 79.9268 26.0067 81.7568C24.2367 81.0568 22.3367 80.8969 20.4667 81.2969L15.7067 82.2868C15.4167 82.3468 15.2067 82.5968 15.1967 82.8968C15.1867 83.1968 15.3767 83.4568 15.6667 83.5368L20.9467 85.0469C21.3467 85.1569 21.7467 85.2469 22.1467 85.3069C23.0067 85.4369 23.8867 85.4468 24.7567 85.3368L29.6467 84.7268C31.7067 86.2668 33.8767 87.6569 36.1467 88.8669C34.7367 88.8269 33.3367 89.0868 32.0167 89.6668L27.2867 91.7469C27.0167 91.8669 26.8567 92.1568 26.9067 92.4468C26.9567 92.7268 27.1767 92.9368 27.4467 92.9768C27.4667 92.9768 27.4767 92.9769 27.4967 92.9869L33.2467 93.4369C34.5367 93.5369 35.8167 93.3768 37.0467 92.9668L41.6467 91.4168C45.6067 92.9669 49.7667 94.0369 53.9967 94.5669C54.0067 94.5669 54.0167 94.5669 54.0266 94.5669C54.8567 94.6569 55.5967 94.0568 55.6867 93.2268C55.7767 92.3868 55.1767 91.6469 54.3467 91.5569Z" fill="#252525"/>
<path d="M117.627 52.7169L121.197 51.0869C122.447 50.5169 123.547 49.7169 124.467 48.7069L127.517 45.3569C127.717 45.1369 127.747 44.8069 127.577 44.5669C127.417 44.3169 127.097 44.2169 126.827 44.3169L123.247 45.5769C121.247 46.2869 119.537 47.5869 118.327 49.3269L118.067 49.7069C118.337 47.3469 118.437 44.9669 118.367 42.5969C118.357 42.1969 118.327 41.8069 118.307 41.4069L121.257 39.3569C122.387 38.5769 123.317 37.5869 124.047 36.4269L126.307 32.8269C126.467 32.5769 126.427 32.2469 126.227 32.0369C126.017 31.8269 125.697 31.7769 125.437 31.9269L122.407 33.6569C120.557 34.7069 119.117 36.2869 118.237 38.2269L118.087 38.5569C117.717 35.1869 116.997 31.8668 115.967 28.6469L118.047 25.5769C118.687 24.6369 119.117 23.5869 119.337 22.4669L120.157 18.2369C120.217 17.9469 120.067 17.6569 119.797 17.5269C119.527 17.3969 119.207 17.4769 119.017 17.7069L116.657 20.6069C115.547 21.9769 114.897 23.6269 114.787 25.3869C113.937 23.2769 112.947 21.2169 111.827 19.2369L113.107 15.7269C113.427 14.8469 113.567 13.9269 113.517 12.9969L113.287 8.66687C113.267 8.36687 113.057 8.12686 112.767 8.06686C112.477 8.00686 112.187 8.15688 112.057 8.42688L110.387 11.9869C109.797 13.2569 109.607 14.6369 109.827 16.0169C108.567 14.1369 107.177 12.3469 105.677 10.6569C105.687 10.6369 105.687 10.6069 105.697 10.5869L106.117 7.05685C106.227 6.12685 106.157 5.20685 105.887 4.30685L104.827 0.67688C104.747 0.39688 104.477 0.196879 104.177 0.206879C103.877 0.216879 103.627 0.426858 103.567 0.716858L102.877 3.98688C102.577 5.40688 102.727 6.85688 103.307 8.17688C101.857 6.75688 100.337 5.41688 98.7267 4.17688C98.7167 4.01688 98.6467 3.85686 98.5167 3.74686L96.8267 2.21686C95.7567 1.23686 94.4267 0.636858 92.9867 0.466858L90.2567 0.146851C89.9567 0.116851 89.6867 0.286855 89.5767 0.556855C89.4667 0.836855 89.5667 1.14686 89.8167 1.31686L92.4567 3.14685C93.2267 3.67685 94.0767 4.04688 94.9967 4.23688L97.9567 4.84686C98.0367 4.86686 98.1067 4.86687 98.1867 4.85687C98.2567 4.84687 98.3267 4.81687 98.3867 4.78687C99.3667 5.57687 100.317 6.40688 101.237 7.26688C100.557 6.98688 99.8367 6.79687 99.0867 6.72687L95.9067 6.42688C95.6067 6.39688 95.3367 6.57687 95.2367 6.85687C95.1367 7.13687 95.2467 7.44687 95.4867 7.60687L98.5667 9.63687C99.3967 10.1869 100.317 10.5569 101.287 10.7269L104.697 11.3469C104.767 11.3569 104.837 11.3569 104.907 11.3469C104.967 11.3369 105.027 11.3169 105.077 11.2969C106.537 13.0169 107.887 14.8369 109.097 16.7469C107.847 15.6269 106.317 14.9069 104.637 14.6669L101.227 14.1869C100.937 14.1469 100.647 14.3069 100.537 14.5869C100.427 14.8669 100.517 15.1769 100.757 15.3569L104.017 17.7269C104.937 18.3969 105.967 18.8669 107.077 19.1269L110.767 19.9769C110.847 19.9969 110.927 19.9969 110.997 19.9869C112.097 22.0369 113.047 24.1769 113.847 26.3669L113.427 25.8769C112.277 24.5269 110.767 23.5969 109.047 23.1669L105.417 22.2669C105.127 22.1969 104.827 22.3269 104.687 22.5869C104.547 22.8469 104.607 23.1769 104.827 23.3669L108.027 26.2569C108.877 27.0169 109.847 27.5969 110.927 27.9669L114.757 29.2869C114.767 29.2869 114.787 29.2969 114.797 29.2969C115.547 31.8469 116.097 34.4669 116.417 37.0969C115.647 35.4769 114.467 34.0969 112.967 33.0869L110.067 31.1269C109.817 30.9569 109.497 30.9869 109.277 31.1769C109.057 31.3769 108.997 31.6969 109.137 31.9569L111.117 35.7169C111.757 36.9269 112.617 37.9869 113.687 38.8469L116.757 41.3469C116.767 41.7569 116.787 42.1769 116.787 42.5869C116.807 44.6169 116.687 46.6469 116.457 48.6569C116.007 46.7569 115.047 45.0369 113.627 43.6769L110.897 41.0469C110.687 40.8369 110.357 40.8069 110.107 40.9669C109.857 41.1269 109.747 41.4369 109.837 41.7169L111.237 46.0269C111.657 47.3269 112.327 48.5169 113.237 49.5469L115.867 52.5569C115.577 54.0069 115.237 55.4369 114.827 56.8469C114.567 57.7469 114.267 58.6269 113.957 59.5069C113.847 57.7569 113.357 56.0569 112.487 54.4969L110.767 51.4069C110.627 51.1469 110.317 51.0169 110.037 51.0969C109.747 51.1769 109.557 51.4369 109.557 51.7369L109.637 56.1969C109.667 57.7969 110.007 59.3569 110.667 60.8169L112.107 64.0369C111.157 66.0569 110.067 68.0169 108.837 69.8769C108.537 70.3269 108.237 70.7769 107.917 71.2169C108.377 69.1969 108.287 67.0969 107.667 65.0969L106.517 61.4369C106.427 61.1569 106.157 60.9669 105.867 60.9869C105.577 61.0069 105.327 61.2169 105.267 61.5069L104.377 66.1669C104.077 67.7369 104.097 69.3369 104.437 70.8969L105.257 74.6368C103.437 76.7768 101.447 78.7569 99.2967 80.5469C99.0267 80.7669 98.7467 80.9868 98.4767 81.2068L99.1567 79.4269C99.8767 77.5569 99.9967 75.5368 99.4867 73.5869L98.2667 68.8769C98.1967 68.5869 97.9367 68.3868 97.6367 68.3969C97.3367 68.3969 97.0867 68.6069 97.0167 68.8869L95.7267 74.2169C95.4267 75.4769 95.3767 76.7569 95.5867 78.0369L96.3767 82.7769C93.6467 84.7169 90.7067 86.3769 87.6467 87.7169L88.4267 86.6968C89.6467 85.1068 90.3267 83.1969 90.3967 81.1869L90.5667 76.0269C90.5767 75.7269 90.3867 75.4668 90.0967 75.3868C89.8167 75.3068 89.5067 75.4269 89.3567 75.6869L86.4667 80.6869C85.8167 81.8069 85.4067 83.0269 85.2567 84.3169L84.6967 88.8969C81.0267 90.2269 77.2067 91.1068 73.3367 91.5168H73.3267C73.3167 91.5168 73.3167 91.5168 73.3067 91.5168C72.4767 91.6168 71.8967 92.3768 71.9967 93.1968C72.0967 94.0268 72.8567 94.6068 73.6767 94.5068C77.9067 93.9768 82.0666 92.9069 86.0266 91.3569L90.6267 92.9069C91.8567 93.3169 93.1267 93.4769 94.4267 93.3769L100.177 92.9269C100.197 92.9269 100.207 92.9269 100.227 92.9169C100.497 92.8769 100.717 92.6668 100.767 92.3868C100.817 92.0968 100.657 91.8069 100.387 91.6869L95.6567 89.6069C94.3467 89.0269 92.9366 88.7669 91.5266 88.8069C93.7966 87.5869 95.9667 86.2069 98.0266 84.6669L102.917 85.2769C103.797 85.3869 104.667 85.3769 105.527 85.2469C105.927 85.1869 106.327 85.0969 106.727 84.9869L112.007 83.4769C112.297 83.3969 112.487 83.1269 112.477 82.8369C112.467 82.5368 112.257 82.2869 111.967 82.2269L107.207 81.1968C105.347 80.7968 103.437 80.9569 101.667 81.6569C103.687 79.8369 105.567 77.8469 107.267 75.7269L110.667 74.9169C112.227 74.5469 113.667 73.8769 114.957 72.9169L118.767 70.0969C119.007 69.9169 119.097 69.6069 118.977 69.3269C118.867 69.0569 118.577 68.8869 118.287 68.9369L114.487 69.4969C114.467 69.4969 114.447 69.5069 114.427 69.5069C113.157 69.6969 111.947 70.0969 110.827 70.6669C111.967 68.8269 112.977 66.9069 113.867 64.9369L117.147 63.7269C118.647 63.1669 120.007 62.3369 121.167 61.2369L124.407 58.1769C124.627 57.9769 124.677 57.6469 124.527 57.3869C124.387 57.1269 124.077 57.0069 123.797 57.0769L120.377 58.0069C118.577 58.4969 116.937 59.3869 115.577 60.6169C115.947 59.5269 116.297 58.4369 116.587 57.3269C117.017 55.8469 117.347 54.2869 117.627 52.7169Z" fill="#252525"/>
<path d="M48.7 21.5435H59.38L74.14 64.1435H62.26L59.68 55.8035H48.34L45.82 64.1435H33.88L48.7 21.5435ZM57.82 48.0035L54.04 34.8035L50.08 48.0035H57.82Z" fill="#252525"/>
<path d="M77.0195 52.6835V42.4835H95.7995V52.6835H77.0195Z" fill="#252525"/>
</svg>
