<svg width="128" height="95" viewBox="0 0 128 95" fill="none" xmlns="http://www.w3.org/2000/svg">
<path d="M54.3467 91.5569C50.4767 91.1469 46.6467 90.2669 42.9867 88.9369L42.4267 84.3569C42.2667 83.0669 41.8667 81.8469 41.2167 80.7269L38.3267 75.7269C38.1767 75.4669 37.8767 75.3469 37.5867 75.4269C37.2967 75.5069 37.1067 75.7769 37.1167 76.0669L37.2867 81.2269C37.3567 83.2369 38.0367 85.1369 39.2567 86.7369L40.0367 87.7568C36.9667 86.4168 34.0367 84.7569 31.3067 82.8169L32.0967 78.0769C32.3067 76.7969 32.2667 75.5168 31.9567 74.2568L30.6667 68.9269C30.5967 68.6369 30.3367 68.4369 30.0467 68.4369C29.7467 68.4369 29.4867 68.6369 29.4167 68.9169L28.1967 73.6269C27.6967 75.5669 27.8067 77.5869 28.5267 79.4669L29.2067 81.2469C28.9367 81.0269 28.6567 80.8169 28.3867 80.5869C26.2367 78.7969 24.2367 76.8169 22.4267 74.6769L23.2467 70.9369C23.5867 69.3669 23.6067 67.7769 23.3067 66.2069L22.4167 61.5469C22.3567 61.2569 22.1067 61.0369 21.8167 61.0269C21.5167 61.0069 21.2467 61.1969 21.1667 61.4769L20.0167 65.1369C19.3867 67.1369 19.3067 69.2369 19.7667 71.2569C19.4567 70.8169 19.1467 70.3669 18.8467 69.9169C17.6167 68.0469 16.5367 66.0969 15.5767 64.0769L17.0167 60.8569C17.6667 59.3969 18.0167 57.8369 18.0467 56.2369L18.1267 51.7769C18.1367 51.4769 17.9367 51.2169 17.6467 51.1369C17.3567 51.0569 17.0567 51.1869 16.9167 51.4469L15.1967 54.5369C14.3267 56.0969 13.8367 57.7969 13.7267 59.5469C13.4167 58.6669 13.1167 57.7769 12.8567 56.8869C12.4467 55.4769 12.0967 54.0369 11.8167 52.5969L14.4467 49.5869C15.3467 48.5569 16.0167 47.3669 16.4467 46.0669L17.8467 41.7569C17.9367 41.4769 17.8267 41.1669 17.5767 41.0069C17.3267 40.8469 16.9967 40.8869 16.7867 41.0869L14.0567 43.7169C12.6367 45.0769 11.6667 46.7969 11.2267 48.6969C10.9967 46.6869 10.8767 44.6569 10.8967 42.6269C10.8967 42.2169 10.9167 41.7969 10.9267 41.3869L13.9967 38.8869C15.0567 38.0269 15.9267 36.9669 16.5667 35.7569L18.5467 31.9969C18.6867 31.7369 18.6267 31.4069 18.4067 31.2169C18.1867 31.0169 17.8567 30.9969 17.6167 31.1669L14.7167 33.1269C13.2167 34.1469 12.0367 35.5169 11.2667 37.1369C11.5967 34.4969 12.1367 31.8869 12.8867 29.3369C12.8967 29.3369 12.9167 29.3369 12.9267 29.3269L16.7567 28.0069C17.8367 27.6369 18.8167 27.0569 19.6567 26.2969L22.8567 23.4069C23.0767 23.2069 23.1367 22.8869 22.9967 22.6269C22.8567 22.3669 22.5567 22.2269 22.2667 22.3069L18.6367 23.2069C16.9167 23.6269 15.4067 24.5669 14.2567 25.9169L13.8367 26.4069C14.6367 24.2169 15.5867 22.0869 16.6867 20.0269C16.7667 20.0369 16.8467 20.0369 16.9167 20.0169L20.6067 19.1669C21.7167 18.9069 22.7467 18.4369 23.6667 17.7669L26.9267 15.3969C27.1667 15.2269 27.2567 14.9069 27.1467 14.6269C27.0367 14.3469 26.7467 14.1869 26.4567 14.2269L23.0467 14.7069C21.3767 14.9369 19.8467 15.6569 18.5867 16.7869C19.7967 14.8869 21.1467 13.0669 22.6067 11.3369C22.6667 11.3669 22.7167 11.3869 22.7767 11.3869C22.8467 11.3969 22.9167 11.3969 22.9867 11.3869L26.3967 10.7669C27.3767 10.5869 28.2867 10.2169 29.1167 9.67689L32.1967 7.64686C32.4467 7.48686 32.5467 7.17686 32.4467 6.89686C32.3467 6.61686 32.0767 6.43686 31.7767 6.46686L28.5967 6.76688C27.8467 6.83688 27.1267 7.01686 26.4467 7.30686C27.3667 6.44686 28.3067 5.61688 29.2967 4.82688C29.3567 4.85688 29.4267 4.88686 29.4967 4.89686C29.5667 4.90686 29.6467 4.90688 29.7267 4.88688L32.6867 4.27686C33.6067 4.08686 34.4567 3.71686 35.2267 3.18686L37.8667 1.35688C38.1067 1.18688 38.2067 0.876868 38.1067 0.596868C38.0067 0.316868 37.7267 0.146864 37.4267 0.186864L34.6967 0.506872C33.2567 0.676872 31.9267 1.27687 30.8567 2.25687L29.1667 3.78687C29.0367 3.90687 28.9667 4.05686 28.9567 4.21686C27.3467 5.44686 25.8267 6.78686 24.3767 8.21686C24.9567 6.88686 25.1067 5.43686 24.8067 4.02686L24.1167 0.756872C24.0567 0.466872 23.8067 0.256862 23.5067 0.246862C23.2067 0.236862 22.9467 0.426863 22.8567 0.716863L21.7967 4.34687C21.5367 5.24687 21.4567 6.16687 21.5667 7.09687L21.9867 10.6269C21.9867 10.6569 21.9967 10.6769 22.0067 10.6969C20.5067 12.3869 19.1267 14.1769 17.8567 16.0569C18.0767 14.6869 17.8867 13.2969 17.2967 12.0269L15.6267 8.46686C15.4967 8.19686 15.2067 8.04688 14.9167 8.10688C14.6267 8.16688 14.4067 8.40688 14.3967 8.70688L14.1667 13.0369C14.1167 13.9669 14.2567 14.8869 14.5767 15.7669L15.8567 19.2769C14.7367 21.2569 13.7467 23.3069 12.8967 25.4269C12.7867 23.6669 12.1367 22.0169 11.0267 20.6469L8.66667 17.7469C8.47667 17.5169 8.1567 17.4469 7.8867 17.5669C7.6167 17.6969 7.46665 17.9869 7.52665 18.2769L8.34666 22.5069C8.56666 23.6269 8.9967 24.6769 9.6367 25.6169L11.7167 28.6869C10.6767 31.9069 9.96666 35.2269 9.59666 38.5969L9.44669 38.2669C8.55669 36.3369 7.11665 34.7569 5.27665 33.6969L2.24668 31.9669C1.98668 31.8169 1.6667 31.8669 1.4567 32.0769C1.2467 32.2869 1.21669 32.6169 1.37669 32.8669L3.6367 36.4669C4.3667 37.6269 5.30667 38.6169 6.42667 39.3969L9.37669 41.4469C9.35669 41.8469 9.32669 42.2369 9.31669 42.6369C9.24669 45.0069 9.34668 47.3869 9.61668 49.7469L9.35667 49.3669C8.13667 47.6269 6.43668 46.3269 4.43668 45.6169L0.856668 44.3569C0.576668 44.2569 0.266668 44.3669 0.106668 44.6069C-0.0533323 44.8569 -0.0333348 45.1769 0.166665 45.3969L3.21665 48.7469C4.13665 49.7569 5.23667 50.5669 6.48667 51.1269L10.0567 52.7569C10.3267 54.3269 10.6667 55.8869 11.0867 57.4269C11.3867 58.5369 11.7267 59.6269 12.0967 60.7169C10.7267 59.4869 9.09667 58.5969 7.29667 58.1069L3.87669 57.1769C3.58669 57.0969 3.28671 57.2269 3.14671 57.4869C2.99671 57.7469 3.0467 58.0669 3.2667 58.2769L6.50669 61.3369C7.67669 62.4369 9.02665 63.2769 10.5267 63.8269L13.8067 65.0369C14.6967 67.0069 15.7067 68.9269 16.8467 70.7669C15.7267 70.1969 14.5167 69.7969 13.2467 69.6069C13.2267 69.6069 13.2067 69.5969 13.1867 69.5969L9.3867 69.0369C9.0967 68.9969 8.80669 69.1569 8.69669 69.4269C8.58669 69.6969 8.66666 70.0169 8.90666 70.1969L12.7167 73.0169C14.0067 73.9669 15.4467 74.6469 17.0067 75.0169L20.4067 75.8269C22.1067 77.9469 23.9867 79.9268 26.0067 81.7568C24.2367 81.0568 22.3367 80.8969 20.4667 81.2969L15.7067 82.2869C15.4167 82.3469 15.2067 82.5969 15.1967 82.8969C15.1867 83.1969 15.3767 83.4569 15.6667 83.5369L20.9467 85.0469C21.3467 85.1569 21.7467 85.2469 22.1467 85.3069C23.0067 85.4369 23.8867 85.4469 24.7567 85.3369L29.6467 84.7269C31.7067 86.2669 33.8767 87.6569 36.1467 88.8669C34.7367 88.8269 33.3367 89.0869 32.0167 89.6669L27.2867 91.7469C27.0167 91.8669 26.8567 92.1568 26.9067 92.4468C26.9567 92.7268 27.1767 92.9369 27.4467 92.9769C27.4667 92.9769 27.4767 92.9769 27.4967 92.9869L33.2467 93.4369C34.5367 93.5369 35.8167 93.3769 37.0467 92.9669L41.6467 91.4169C45.6067 92.9669 49.7667 94.0369 53.9967 94.5669C54.0067 94.5669 54.0167 94.5669 54.0266 94.5669C54.8567 94.6569 55.5967 94.0569 55.6867 93.2269C55.7767 92.3869 55.1767 91.6469 54.3467 91.5569Z" fill="#252525"/>
<path d="M117.627 52.7169L121.197 51.0869C122.447 50.5169 123.547 49.7169 124.467 48.7069L127.517 45.3569C127.717 45.1369 127.747 44.8069 127.577 44.5669C127.417 44.3169 127.097 44.2169 126.827 44.3169L123.247 45.5769C121.247 46.2869 119.537 47.5869 118.327 49.3269L118.067 49.7069C118.337 47.3469 118.437 44.9669 118.367 42.5969C118.357 42.1969 118.327 41.8069 118.307 41.4069L121.257 39.3569C122.387 38.5769 123.317 37.5869 124.047 36.4269L126.307 32.8269C126.467 32.5769 126.427 32.2469 126.227 32.0369C126.017 31.8269 125.697 31.7769 125.437 31.9269L122.407 33.6569C120.557 34.7069 119.117 36.2869 118.237 38.2269L118.087 38.5569C117.717 35.1869 116.997 31.8668 115.967 28.6469L118.047 25.5769C118.687 24.6369 119.117 23.5869 119.337 22.4669L120.157 18.2369C120.217 17.9469 120.067 17.6569 119.797 17.5269C119.527 17.3969 119.207 17.4769 119.017 17.7069L116.657 20.6069C115.547 21.9769 114.897 23.6269 114.787 25.3869C113.937 23.2769 112.947 21.2169 111.827 19.2369L113.107 15.7269C113.427 14.8469 113.567 13.9269 113.517 12.9969L113.287 8.66687C113.267 8.36687 113.057 8.12686 112.767 8.06686C112.477 8.00686 112.187 8.15688 112.057 8.42688L110.387 11.9869C109.797 13.2569 109.607 14.6369 109.827 16.0169C108.567 14.1369 107.177 12.3469 105.677 10.6569C105.687 10.6369 105.687 10.6069 105.697 10.5869L106.117 7.05685C106.227 6.12685 106.157 5.20685 105.887 4.30685L104.827 0.67688C104.747 0.39688 104.477 0.196879 104.177 0.206879C103.877 0.216879 103.627 0.426858 103.567 0.716858L102.877 3.98688C102.577 5.40688 102.727 6.85688 103.307 8.17688C101.857 6.75688 100.337 5.41688 98.7267 4.17688C98.7167 4.01688 98.6467 3.85686 98.5167 3.74686L96.8267 2.21686C95.7567 1.23686 94.4267 0.636858 92.9867 0.466858L90.2567 0.146851C89.9567 0.116851 89.6867 0.286855 89.5767 0.556855C89.4667 0.836855 89.5667 1.14686 89.8167 1.31686L92.4567 3.14685C93.2267 3.67685 94.0767 4.04688 94.9967 4.23688L97.9567 4.84686C98.0367 4.86686 98.1067 4.86687 98.1867 4.85687C98.2567 4.84687 98.3267 4.81687 98.3867 4.78687C99.3667 5.57687 100.317 6.40688 101.237 7.26688C100.557 6.98688 99.8367 6.79687 99.0867 6.72687L95.9067 6.42688C95.6067 6.39688 95.3367 6.57687 95.2367 6.85687C95.1367 7.13687 95.2467 7.44687 95.4867 7.60687L98.5667 9.63687C99.3967 10.1869 100.317 10.5569 101.287 10.7269L104.697 11.3469C104.767 11.3569 104.837 11.3569 104.907 11.3469C104.967 11.3369 105.027 11.3169 105.077 11.2969C106.537 13.0169 107.887 14.8369 109.097 16.7469C107.847 15.6269 106.317 14.9069 104.637 14.6669L101.227 14.1869C100.937 14.1469 100.647 14.3069 100.537 14.5869C100.427 14.8669 100.517 15.1769 100.757 15.3569L104.017 17.7269C104.937 18.3969 105.967 18.8669 107.077 19.1269L110.767 19.9769C110.847 19.9969 110.927 19.9969 110.997 19.9869C112.097 22.0369 113.047 24.1769 113.847 26.3669L113.427 25.8769C112.277 24.5269 110.767 23.5969 109.047 23.1669L105.417 22.2669C105.127 22.1969 104.827 22.3269 104.687 22.5869C104.547 22.8469 104.607 23.1769 104.827 23.3669L108.027 26.2569C108.877 27.0169 109.847 27.5969 110.927 27.9669L114.757 29.2869C114.767 29.2869 114.787 29.2969 114.797 29.2969C115.547 31.8469 116.097 34.4669 116.417 37.0969C115.647 35.4769 114.467 34.0969 112.967 33.0869L110.067 31.1269C109.817 30.9569 109.497 30.9869 109.277 31.1769C109.057 31.3769 108.997 31.6969 109.137 31.9569L111.117 35.7169C111.757 36.9269 112.617 37.9869 113.687 38.8469L116.757 41.3469C116.767 41.7569 116.787 42.1769 116.787 42.5869C116.807 44.6169 116.687 46.6469 116.457 48.6569C116.007 46.7569 115.047 45.0369 113.627 43.6769L110.897 41.0469C110.687 40.8369 110.357 40.8069 110.107 40.9669C109.857 41.1269 109.747 41.4369 109.837 41.7169L111.237 46.0269C111.657 47.3269 112.327 48.5169 113.237 49.5469L115.867 52.5569C115.577 54.0069 115.237 55.4369 114.827 56.8469C114.567 57.7469 114.267 58.6269 113.957 59.5069C113.847 57.7569 113.357 56.0569 112.487 54.4969L110.767 51.4069C110.627 51.1469 110.317 51.0169 110.037 51.0969C109.747 51.1769 109.557 51.4369 109.557 51.7369L109.637 56.1969C109.667 57.7969 110.007 59.3569 110.667 60.8169L112.107 64.0369C111.157 66.0569 110.067 68.0169 108.837 69.8769C108.537 70.3269 108.237 70.7769 107.917 71.2169C108.377 69.1969 108.287 67.0969 107.667 65.0969L106.517 61.4369C106.427 61.1569 106.157 60.9669 105.867 60.9869C105.577 61.0069 105.327 61.2169 105.267 61.5069L104.377 66.1669C104.077 67.7369 104.097 69.3369 104.437 70.8969L105.257 74.6368C103.437 76.7768 101.447 78.7569 99.2967 80.5469C99.0267 80.7669 98.7467 80.9868 98.4767 81.2068L99.1567 79.4269C99.8767 77.5569 99.9967 75.5368 99.4867 73.5869L98.2667 68.8769C98.1967 68.5869 97.9367 68.3868 97.6367 68.3969C97.3367 68.3969 97.0867 68.6069 97.0167 68.8869L95.7267 74.2169C95.4267 75.4769 95.3767 76.7569 95.5867 78.0369L96.3767 82.7769C93.6467 84.7169 90.7067 86.3769 87.6467 87.7169L88.4267 86.6968C89.6467 85.1068 90.3267 83.1969 90.3967 81.1869L90.5667 76.0269C90.5767 75.7269 90.3867 75.4668 90.0967 75.3868C89.8167 75.3068 89.5067 75.4269 89.3567 75.6869L86.4667 80.6869C85.8167 81.8069 85.4067 83.0269 85.2567 84.3169L84.6967 88.8969C81.0267 90.2269 77.2067 91.1068 73.3367 91.5168H73.3267C73.3167 91.5168 73.3167 91.5168 73.3067 91.5168C72.4767 91.6168 71.8967 92.3768 71.9967 93.1968C72.0967 94.0268 72.8567 94.6068 73.6767 94.5068C77.9067 93.9768 82.0666 92.9069 86.0266 91.3569L90.6267 92.9069C91.8567 93.3169 93.1267 93.4769 94.4267 93.3769L100.177 92.9269C100.197 92.9269 100.207 92.9269 100.227 92.9169C100.497 92.8769 100.717 92.6668 100.767 92.3868C100.817 92.0968 100.657 91.8069 100.387 91.6869L95.6567 89.6069C94.3467 89.0269 92.9366 88.7669 91.5266 88.8069C93.7966 87.5869 95.9667 86.2069 98.0266 84.6669L102.917 85.2769C103.797 85.3869 104.667 85.3769 105.527 85.2469C105.927 85.1869 106.327 85.0969 106.727 84.9869L112.007 83.4769C112.297 83.3969 112.487 83.1269 112.477 82.8369C112.467 82.5368 112.257 82.2869 111.967 82.2269L107.207 81.1968C105.347 80.7968 103.437 80.9569 101.667 81.6569C103.687 79.8369 105.567 77.8469 107.267 75.7269L110.667 74.9169C112.227 74.5469 113.667 73.8769 114.957 72.9169L118.767 70.0969C119.007 69.9169 119.097 69.6069 118.977 69.3269C118.867 69.0569 118.577 68.8869 118.287 68.9369L114.487 69.4969C114.467 69.4969 114.447 69.5069 114.427 69.5069C113.157 69.6969 111.947 70.0969 110.827 70.6669C111.967 68.8269 112.977 66.9069 113.867 64.9369L117.147 63.7269C118.647 63.1669 120.007 62.3369 121.167 61.2369L124.407 58.1769C124.627 57.9769 124.677 57.6469 124.527 57.3869C124.387 57.1269 124.077 57.0069 123.797 57.0769L120.377 58.0069C118.577 58.4969 116.937 59.3869 115.577 60.6169C115.947 59.5269 116.297 58.4369 116.587 57.3269C117.017 55.8469 117.347 54.2869 117.627 52.7169Z" fill="#252525"/>
<path d="M35.3199 42.4834C35.3199 39.8834 35.7999 37.3234 36.7599 34.8034C37.7599 32.2834 39.1999 30.0234 41.0799 28.0234C42.9599 26.0234 45.2399 24.4034 47.9199 23.1634C50.5999 21.9234 53.6599 21.3034 57.0999 21.3034C61.2199 21.3034 64.7799 22.1634 67.7799 23.8834C70.82 25.5634 73.08 27.8034 74.56 30.6034L65.6199 36.9634C65.2199 35.9234 64.6799 35.0634 63.9999 34.3834C63.3599 33.7034 62.6399 33.1634 61.8399 32.7634C61.0399 32.3634 60.1999 32.0834 59.3199 31.9234C58.4799 31.7634 57.6599 31.6834 56.8599 31.6834C55.1799 31.6834 53.7199 32.0234 52.4799 32.7034C51.2799 33.3434 50.2799 34.2034 49.4799 35.2834C48.7199 36.3234 48.1399 37.5234 47.7399 38.8834C47.3799 40.2034 47.1999 41.5234 47.1999 42.8434C47.1999 44.3234 47.4199 45.7434 47.8599 47.1034C48.2999 48.4634 48.9399 49.6634 49.7799 50.7034C50.6199 51.7434 51.6399 52.5834 52.8399 53.2234C54.0799 53.8234 55.4599 54.1234 56.9799 54.1234C57.7799 54.1234 58.5999 54.0434 59.4399 53.8834C60.2799 53.6834 61.0799 53.3834 61.8399 52.9834C62.6399 52.5434 63.3399 52.0034 63.9399 51.3634C64.5799 50.6834 65.0799 49.8634 65.4399 48.9034L74.9799 54.6034C74.34 56.1634 73.36 57.5634 72.0399 58.8034C70.7599 60.0434 69.2799 61.0834 67.5999 61.9234C65.9599 62.7634 64.1799 63.4034 62.2599 63.8434C60.3799 64.2834 58.5399 64.5034 56.7399 64.5034C53.5799 64.5034 50.6799 63.8834 48.0399 62.6434C45.4399 61.3634 43.1799 59.6834 41.2599 57.6034C39.3799 55.5234 37.9199 53.1634 36.8799 50.5234C35.8399 47.8834 35.3199 45.2034 35.3199 42.4834Z" fill="#252525"/>
<path d="M98.5243 38.3434V47.3434H93.4243V53.0434H83.2243V47.3434H78.1243V38.3434H83.2243V32.6434H93.4243V38.3434H98.5243Z" fill="#252525"/>
</svg>
